<svg width="37" height="30" viewBox="0 0 37 30" fill="none" xmlns="http://www.w3.org/2000/svg">
<path d="M11.2077 22.9786C8.40771 22.918 6.00664 21.221 4.89899 18.8145C5.12121 18.8294 5.34185 18.8346 5.55692 18.8346C6.29153 18.8346 7.00813 18.7496 7.6734 18.5677L7.64174 17.5955C4.65854 16.9853 2.33293 14.4814 2.01423 11.3783C2.90322 11.7506 3.88575 11.9778 4.88744 11.9968L6.59265 12.0292L5.17482 11.0813C3.29508 9.82451 2.03462 7.6534 2.03462 5.20615C2.03462 4.16072 2.26456 3.17396 2.67197 2.2758C6.48646 6.64837 11.9766 9.49607 18.1487 9.7971L18.8064 9.82917L18.6607 9.18706C18.5462 8.68253 18.4977 8.14405 18.4977 7.57154C18.4977 3.67619 21.6492 0.5 25.5623 0.5C27.5792 0.5 29.4289 1.35536 30.7271 2.73768L30.9172 2.94009L31.1895 2.8857C32.4797 2.628 33.7138 2.22162 34.8728 1.67242C34.2688 2.76472 33.3811 3.67524 32.3052 4.31762L32.6246 5.24293C33.608 5.11795 34.5674 4.90993 35.4955 4.61917C34.7159 5.5457 33.8313 6.37015 32.8399 7.07378L32.6161 7.23261L32.6299 7.50669C32.6458 7.82272 32.6569 8.13676 32.6569 8.46C32.6569 18.2465 25.208 29.5 11.6123 29.5C8.15664 29.5 4.91042 28.6787 2.0415 27.2053C5.60873 27.1539 8.9007 25.9095 11.505 23.8723L12.6087 23.0089L11.2077 22.9786Z" fill="#21243D" stroke="black"/>
</svg>
